<svg aria-hidden="true" style="position: absolute; width: 0; height: 0; overflow: hidden;" version="1.1" xmlns="http://www.w3.org/2000/svg" xmlns:xlink="http://www.w3.org/1999/xlink">
<defs>
<symbol id="icon-satellite" viewBox="0 0 30 32">
<path fill="#2e2f42" style="fill: var(--color1, #2e2f42)" d="M29.7 22.1l-8.45-8.5 0.95-4.6 0.75 0.1c0.004 0 0.010 0 0.015 0 1.187 0 2.15-0.963 2.15-2.15s-0.963-2.15-2.15-2.15c-1.187 0-2.15 0.963-2.15 2.15 0 0.269 0.050 0.527 0.14 0.765l-0.005-0.015-5 0.6-8-8.15-0.35-0.15-0.4 0.15-1.5 1.5c-0.104 0.092-0.169 0.226-0.169 0.375s0.065 0.283 0.169 0.375l0.001 0 0.8 0.85c-1.136 2.062-1.804 4.519-1.804 7.133 0 4.148 1.683 7.902 4.404 10.617l0 0v6.75h-6.5c-1.5 0-2.65 1.2-2.65 2.65v1.050q0.050 0.5 0.5 0.55h24.55q0.5-0.050 0.55-0.5v-1.1c0-1.5-1.2-2.65-2.65-2.65h-6.4v-2.75c0.884 0.185 1.901 0.291 2.942 0.291 2.604 0 5.053-0.663 7.187-1.83l-0.078 0.039 0.85 0.85q0.15 0.15 0.35 0.15 0.25 0 0.4-0.15l1.5-1.5q0.3-0.35 0-0.75zM22.15 6.25c0.193-0.214 0.471-0.348 0.781-0.348 0.58 0 1.050 0.47 1.050 1.050 0 0.555-0.431 1.010-0.977 1.048l-0.003 0c-0.005 0-0.010 0-0.015 0-0.58 0-1.050-0.47-1.050-1.050 0-0.294 0.121-0.559 0.315-0.75l0-0zM21 9.7l-0.6 2.95-1.15-1.2zM20.4 8.8l-1.9 1.9-1.5-1.5zM23 28.75c0.85 0 1.6 0.7 1.6 1.6v0.5h-23.6v-0.5c0-0.9 0.75-1.6 1.6-1.6zM15.5 26.6v1.1h-5.35v-1.1zM10.2 25.55v-4.050c0-1.3 1.2-2.35 2.65-2.35 1.5 0 2.65 1.050 2.65 2.35v4.050zM16.5 23.9v-2.35c0-1.9-1.7-3.4-3.75-3.4-1.366 0.003-2.571 0.69-3.291 1.736l-0.009 0.014c-2.325-2.493-3.753-5.849-3.753-9.539 0-2.302 0.556-4.474 1.54-6.389l-0.037 0.079 18.6 18.7c-2.9 1.45-6.15 1.85-9.3 1.15zM27.75 23.2l-0.7-0.7-20.35-20.5 0.8-0.7 8 8 13.1 13.15z"></path>
<path fill="#4d5ae5" style="fill: var(--color2, #4d5ae5)" d="M12.8 20.25c-0.884 0-1.6 0.716-1.6 1.6s0.716 1.6 1.6 1.6v0c0.884 0 1.6-0.716 1.6-1.6s-0.716-1.6-1.6-1.6v0zM13.2 22.25c-0.078 0.053-0.175 0.085-0.279 0.085-0.276 0-0.5-0.224-0.5-0.5 0-0.233 0.16-0.429 0.376-0.484l0.003-0.001c0.016-0.002 0.035-0.003 0.054-0.003 0.276 0 0.5 0.224 0.5 0.5 0 0.165-0.080 0.311-0.203 0.402l-0.001 0.001z"></path>
</symbol>
<symbol id="icon-diagram" viewBox="0 0 32 32">
<path fill="#4d5ae5" style="fill: var(--color2, #4d5ae5)" d="M14.95 15h1v4.75h-1zM19.2 17.1h1.050v2.65h-1.050zM10.65 18.7h1.1v1.050h-1.1zM7.5 18.15h1v1.6h-1z"></path>
<path fill="#2e2f42" style="fill: var(--color1, #2e2f42)" d="M1.6 28.3h25.6c0.85 0 1.6-0.75 1.6-1.6v-2.2c0-0.85-0.75-1.6-1.6-1.6h-0.5v-13.25l3-2.85c0.202 0.099 0.441 0.158 0.692 0.158 0.884 0 1.6-0.716 1.6-1.6s-0.716-1.6-1.6-1.6c-0.884 0-1.6 0.716-1.6 1.6 0 0.252 0.058 0.49 0.162 0.702l-0.004-0.009-2.3 2.15v-1.25c0-0.85-0.7-1.6-1.6-1.6h-21.3c-0.032-0.002-0.070-0.004-0.108-0.004-0.828 0-1.5 0.672-1.5 1.5 0 0.054 0.003 0.108 0.008 0.16l-0.001-0.007v16h-0.55c-0.030-0.002-0.065-0.003-0.101-0.003-0.828 0-1.5 0.672-1.5 1.5 0 0.019 0 0.037 0.001 0.056l-0-0.003v2.15c0 0.85 0.7 1.6 1.6 1.6zM30.4 4.8c0.304 0 0.55 0.246 0.55 0.55s-0.246 0.55-0.55 0.55v0c-0.29 0-0.525-0.235-0.525-0.525s0.235-0.525 0.525-0.525v0zM3.2 7q0.050-0.5 0.5-0.5h21.35q0.5 0 0.5 0.5v2.25l-1 1v-2.15q-0.050-0.6-0.55-0.6h-19.2c-0.276 0-0.5 0.224-0.5 0.5v0 13.35q0 0.5 0.5 0.5h19.2q0.5 0 0.5-0.5v-9.65l1.1-1v12.25h-22.4zM8 13.9c-0.004-0-0.008-0-0.012-0-0.884 0-1.6 0.716-1.6 1.6s0.716 1.6 1.6 1.6c0.432 0 0.825-0.172 1.113-0.45l-0 0 1.85 0.95q0.35 0.1 0.65-0.15l3.9-4.45 3.85 2.9q0.35 0.25 0.7 0l3.35-3.2v8.15h-18.050v-12.35h18.1v2.7l-3.75 3.55-3.9-2.95c-0.088-0.078-0.204-0.126-0.332-0.126-0.174 0-0.328 0.089-0.417 0.224l-0.001 0.002-4 4.5-1.5-0.75v-0.15c0-0.9-0.65-1.6-1.55-1.6zM8.5 15.5c0 0.276-0.224 0.5-0.5 0.5s-0.5-0.224-0.5-0.5v0c0-0.276 0.224-0.5 0.5-0.5s0.5 0.224 0.5 0.5v0zM11.75 24h5.25v0.55q-0.050 0.5-0.5 0.5h-4.3c-0.276 0-0.5-0.224-0.5-0.5v0zM1 24.6q0.050-0.5 0.55-0.5h9.050v0.5c0 0.9 0.75 1.6 1.6 1.6h4.3c0.9 0 1.6-0.7 1.6-1.6v-0.5h9.1q0.5 0 0.5 0.5v2.15q0 0.5-0.5 0.5h-25.6c-0.276 0-0.5-0.224-0.5-0.5v0z"></path>
</symbol>
<symbol id="icon-twitter" viewBox="0 0 32 32">
<path d="M32 6.133q-1.733 0.8-3.733 0.933 2.133-1.2 2.8-3.6-2 1.2-4 1.6c-1.215-1.266-2.922-2.053-4.812-2.053-3.682 0-6.667 2.985-6.667 6.667 0 0.491 0.053 0.97 0.154 1.431l-0.008-0.044c-5.473-0.359-10.259-3.027-13.437-7.028l-0.029-0.038c-0.554 0.951-0.881 2.094-0.881 3.312 0 2.266 1.131 4.269 2.859 5.473l0.022 0.014q-1.6 0.133-2.933-0.667c-0.001 0.049-0.002 0.106-0.002 0.163 0 3.163 2.202 5.811 5.157 6.495l0.045 0.009c-0.441 0.104-0.947 0.163-1.467 0.163s-1.026-0.060-1.512-0.172l0.045 0.009c0.897 2.602 3.289 4.453 6.124 4.533l0.009 0c-2.224 1.724-5.055 2.764-8.128 2.764-0.566 0-1.124-0.035-1.671-0.104l0.065 0.007q4.533 2.933 10 3.067c0.009 0 0.020 0 0.030 0 10.309 0 18.667-8.357 18.667-18.667 0-0.375-0.011-0.748-0.033-1.118l0.002 0.051q2-1.333 3.333-3.333z"></path>
</symbol>
<symbol id="icon-linkedin" viewBox="0 0 32 32">
<path d="M32 32v-11.733c0-5.733-1.333-10.133-8-10.133-3.2 0-5.333 1.733-6.267 3.467v-2.933h-6.4v21.333h6.667v-10.667c0-2.667 0.533-5.333 4-5.333 3.333 0 3.333 3.067 3.333 5.6v10.4zM0.533 10.667h6.667v21.333h-6.667zM3.867 0c-2.106 0.071-3.795 1.76-3.866 3.86l-0 0.007c0.071 2.106 1.76 3.795 3.86 3.866l0.007 0c2.151-0.074 3.867-1.836 3.867-3.998 0-0.001 0-0.002 0-0.002v0c0-2-1.733-3.733-4-3.733z"></path>
</symbol>
<symbol id="icon-instagram" viewBox="0 0 32 32">
<path d="M32 9.333q0-2.267-0.8-3.867t-1.867-2.667c-0.729-0.833-1.617-1.507-2.618-1.979l-0.049-0.021q-1.6-0.667-4-0.667c-1.276-0.053-2.774-0.084-4.279-0.084-4.506 0-8.949 0.273-13.313 0.802l0.525-0.052q-1.6 0.667-2.933 1.867c-0.743 0.779-1.333 1.711-1.715 2.745l-0.018 0.055q-0.533 1.467-0.8 4c-0.034 1.022-0.054 2.224-0.054 3.43 0 4.807 0.31 9.542 0.912 14.185l-0.058-0.548c0.455 1.043 1.086 1.93 1.863 2.663l0.004 0.004c0.729 0.833 1.617 1.507 2.618 1.979l0.049 0.021q1.467 0.667 4 0.667c1.182 0.043 2.571 0.067 3.966 0.067 4.616 0 9.169-0.267 13.646-0.785l-0.545 0.051c2.161-0.83 3.837-2.506 4.648-4.612l0.019-0.055q0.667-1.467 0.8-4c0.116-1.952 0.182-4.235 0.182-6.533s-0.066-4.581-0.196-6.847l0.014 0.313zM29.067 22.667q0 2.133-0.533 2.933c-0.554 1.415-1.652 2.513-3.030 3.054l-0.036 0.013q-0.667 0.267-2.933 0.533c-1.276 0.052-2.774 0.082-4.278 0.082-4.129 0-8.205-0.223-12.218-0.659l0.497 0.044q-0.933-0.4-1.733-1.333-0.8-0.667-1.2-1.733-0.533-0.667-0.533-2.933c-0.050-1.263-0.079-2.745-0.079-4.234 0-4.144 0.222-8.237 0.656-12.266l-0.044 0.5q0.4-1.067 1.2-1.733l1.867-1.333q0.667-0.267 2.933-0.4c1.263-0.050 2.745-0.079 4.234-0.079 4.144 0 8.237 0.222 12.266 0.656l-0.5-0.044q0.933 0.4 1.733 1.2 0.8 0.667 1.2 1.733 0.4 0.8 0.533 3.067c0.118 1.933 0.185 4.192 0.185 6.467s-0.067 4.534-0.199 6.776l0.015-0.309z"></path>
<path d="M16 7.733c-4.566 0-8.267 3.701-8.267 8.267s3.701 8.267 8.267 8.267v0c4.566 0 8.267-3.701 8.267-8.267s-3.701-8.267-8.267-8.267v0zM16 21.333c-2.946 0-5.333-2.388-5.333-5.333s2.388-5.333 5.333-5.333v0c2.946 0 5.333 2.388 5.333 5.333s-2.388 5.333-5.333 5.333v0zM26.533 7.467c0 1.068-0.866 1.933-1.933 1.933s-1.933-0.866-1.933-1.933v0c0-1.068 0.866-1.933 1.933-1.933s1.933 0.866 1.933 1.933v0z"></path>
</symbol>
<symbol id="icon-facebook" viewBox="0 0 32 32">
<path d="M21.333 5.333h2.933v-5.067l-4.267-0.267c-4.267 0-7.067 2.667-7.067 7.467v4.533h-4.667v5.733h4.667v14.267h5.6v-14.267h4.533l0.667-5.733h-5.067v-4c0-1.6 0.533-2.667 2.8-2.667z"></path>
</symbol>
<symbol id="icon-clock" viewBox="0 0 32 32">
<path fill="#2e2f42" style="fill: var(--color1, #2e2f42)" d="M31.3 15.3c-0.008-8.444-6.855-15.286-15.3-15.286-8.45 0-15.3 6.85-15.3 15.3 0 6.783 4.414 12.535 10.527 14.541l0.108 0.031q0.090 0.030 0.19 0.030 0.18 0 0.34-0.1 0.205-0.12 0.285-0.35l3.865-12.25c0.001 0 0.001 0 0.002 0 1.058 0 1.915-0.857 1.915-1.915s-0.857-1.915-1.915-1.915c-0.306 0-0.596 0.072-0.853 0.2l0.011-0.005-5.105-5.11c-0.109-0.088-0.249-0.142-0.402-0.142-0.353 0-0.64 0.287-0.64 0.64 0 0.153 0.054 0.293 0.143 0.403l-0.001-0.001 5.1 5.11c-0.121 0.241-0.192 0.526-0.192 0.827 0 0.601 0.283 1.137 0.723 1.48l0.004 0.003-3.68 11.675c-5.411-2.034-9.191-7.165-9.191-13.179 0-7.757 6.288-14.045 14.045-14.045s14.045 6.288 14.045 14.045c0 5.687-3.38 10.585-8.241 12.794l-0.088 0.036-0.4-1.875c-0.060-0.293-0.316-0.51-0.623-0.51-0.165 0-0.315 0.063-0.428 0.166l0-0-3.835 3.425c-0.134 0.117-0.217 0.288-0.217 0.478 0 0.284 0.186 0.524 0.443 0.605l0.005 0.001 4.9 1.565c0.060 0.020 0.128 0.032 0.2 0.032 0.351 0 0.635-0.284 0.635-0.635 0-0.049-0.005-0.096-0.016-0.142l0.001 0.004-0.39-1.84c5.526-2.374 9.325-7.769 9.325-14.052 0-0.013-0-0.027-0-0.040v0.002zM15.985 14.665c0.017-0.002 0.037-0.002 0.056-0.002 0.353 0 0.64 0.287 0.64 0.64s-0.287 0.64-0.64 0.64c-0.020 0-0.040-0.001-0.059-0.003l0.002 0c-0.328-0.030-0.584-0.304-0.584-0.637s0.255-0.608 0.581-0.637l0.002-0zM18.085 29.53l2.185-1.95 0.6 2.84z"></path>
<path fill="#4d5ae5" style="fill: var(--color2, #4d5ae5)" d="M15.35 3.185v1.275c0 0.353 0.287 0.64 0.64 0.64s0.64-0.287 0.64-0.64v-1.275c-0.030-0.328-0.304-0.583-0.637-0.583s-0.608 0.255-0.637 0.581l-0 0.002zM3.875 14.665c-0.328 0.030-0.583 0.304-0.583 0.637s0.255 0.608 0.581 0.637l0.002 0h1.275c0.017 0.002 0.037 0.002 0.056 0.002 0.353 0 0.64-0.287 0.64-0.64s-0.287-0.64-0.64-0.64c-0.020 0-0.040 0.001-0.059 0.003l0.003-0zM28.11 15.94c0.017 0.002 0.037 0.002 0.056 0.002 0.353 0 0.64-0.287 0.64-0.64s-0.287-0.64-0.64-0.64c-0.020 0-0.040 0.001-0.059 0.003l0.003-0h-1.275c-0.328 0.030-0.584 0.304-0.584 0.637s0.255 0.608 0.581 0.637l0.003 0z"></path>
</symbol>
<symbol id="icon-astronaut" viewBox="0 0 32 32">
<path fill="#4d5ae5" style="fill: var(--color2, #4d5ae5)" d="M31.975 4.525c-0.066-0.19-0.228-0.33-0.427-0.365l-0.003-0-1.91-0.275-0.855-1.735c-0.18-0.365-0.78-0.365-0.96 0l-0.85 1.735-1.915 0.275c-0.259 0.040-0.454 0.262-0.454 0.529 0 0.149 0.061 0.284 0.159 0.381l0 0 1.385 1.35-0.33 1.9c-0.005 0.027-0.008 0.059-0.008 0.091 0 0.295 0.24 0.535 0.535 0.535 0.091 0 0.176-0.023 0.251-0.062l-0.003 0.001 1.71-0.9 1.71 0.9c0.072 0.038 0.157 0.061 0.248 0.061 0.295 0 0.535-0.24 0.535-0.535 0-0.032-0.003-0.064-0.008-0.094l0 0.003-0.33-1.9 1.385-1.35c0.145-0.14 0.2-0.35 0.135-0.55zM29.51 5.845c-0.125 0.125-0.18 0.3-0.15 0.475l0.19 1.11-1-0.525c-0.072-0.042-0.158-0.067-0.25-0.067s-0.178 0.025-0.252 0.068l0.002-0.001-1 0.525 0.19-1.11c0.030-0.175-0.025-0.35-0.15-0.475l-0.81-0.79 1.115-0.16c0.175-0.025 0.325-0.135 0.4-0.295l0.5-1.010 0.5 1.010c0.080 0.16 0.23 0.27 0.405 0.295l1.12 0.16zM26.135 20.52h-1.070v1.070h1.070zM26.135 22.655h-1.070v1.065h1.070zM27.2 21.59h-1.065v1.065h1.065zM25.065 21.59h-1.065v1.065h1.065zM22.4 26.39h-1.065v1.065h1.065zM22.4 28.52h-1.065v1.070h1.065zM23.465 27.455h-1.065v1.065h1.065z"></path>
<path fill="#4d5ae5" style="fill: var(--color2, #4d5ae5)" d="M21.335 27.455h-1.070v1.065h1.070zM16 24.255h-1.065v1.065h1.065zM16 26.39h-1.065v1.065h1.065zM17.065 25.32h-1.065v1.070h1.065zM14.935 25.32h-1.070v1.070h1.070zM5.865 6.12h-1.065v1.070h1.065zM5.865 8.255h-1.065v1.065h1.065zM6.935 7.19h-1.070v1.065h1.070zM4.8 7.19h-1.065v1.065h1.065z"></path>
<path fill="#2e2f42" style="fill: var(--color1, #2e2f42)" d="M24.715 14.16c-0.282-0.375-0.701-0.634-1.18-0.704l-0.010-0.001c-0.075-0.011-0.162-0.017-0.25-0.017-0.412 0-0.791 0.138-1.094 0.371l0.004-0.003-1.25 0.96-1.9 1.42-1.355-0.54c2.438-1.109 4.104-3.518 4.115-6.319v-0.001c0-3.825-3.125-6.935-6.965-6.935-0.003 0-0.007 0-0.010 0-3.833 0-6.941 3.103-6.95 6.934v0.001c0 1.385 0.415 2.67 1.12 3.755l-2.765-0.025-0.025 0.005q-0.075 0-0.155 0.035l-0.040 0.010q-0.010 0-0.020 0.010l-3.235 1.595-1.89 0.91-0.065 0.035c-0.521 0.317-0.864 0.882-0.864 1.528 0 0.984 0.798 1.782 1.782 1.782 0.339 0 0.656-0.095 0.925-0.259l-0.008 0.004 1.39-0.735 2.265-1.17 1.355-0.010-6.785 6.755c-0.307 0.3-0.497 0.718-0.497 1.18s0.19 0.88 0.496 1.18l0 0c0.301 0.301 0.718 0.488 1.177 0.488s0.876-0.186 1.177-0.488v0l1.315-1.31 1.74-1.3 0.9 0.9-3.1 3.085c-0.305 0.3-0.494 0.716-0.494 1.177s0.189 0.878 0.494 1.177l0 0c0.302 0.302 0.719 0.488 1.18 0.488s0.878-0.187 1.18-0.488l-0 0 1.34-1.33 2.145-2.135 1.010-1-0.005-0.005 0.020-0.015 5.17-5.66 3.47 0.495c0.020 0.003 0.043 0.004 0.066 0.004 0.070 0 0.137-0.014 0.198-0.041l-0.003 0.001 0.050-0.020 0.060-0.030 3.21-2.135q0.020-0.015 0.030-0.025 0.025-0.010 0.040-0.030l1.275-1.19c0.346-0.326 0.562-0.786 0.562-1.298 0-0.4-0.132-0.77-0.355-1.067l0.003 0.005zM2.13 17.77q-0.27 0.14-0.56 0.050c-0.294-0.093-0.503-0.364-0.503-0.683 0-0.236 0.115-0.446 0.291-0.576l0.002-0.001 1.315-0.63 0.315 0.925 0.13 0.39zM5.63 15.94l-1.55 0.8-0.255-0.74-0.185-0.535 2.025-1zM20.73 9.32c0 0.92-0.22 1.785-0.6 2.56l-4.185-1.9c-0.042-0.574-0.34-1.071-0.779-1.381l-0.006-0.004 1.46-4.86c2.39 0.78 4.089 2.982 4.105 5.583v0.002zM8.935 9.32c0.015-3.242 2.646-5.864 5.89-5.864 0.266 0 0.528 0.018 0.785 0.052l-0.030-0.003-1.435 4.755h-0.055c-0.002 0-0.003 0-0.005 0-1.029 0-1.864 0.832-1.87 1.859v0.001c0.005 1.029 0.84 1.861 1.87 1.861 0.689 0 1.291-0.373 1.615-0.927l0.005-0.009 3.865 1.75c-1.085 1.459-2.803 2.394-4.74 2.394-3.245 0-5.878-2.625-5.89-5.868v-0.001zM14.89 10.12c0 0.445-0.36 0.805-0.805 0.805s-0.805-0.36-0.805-0.805v0c0-0.44 0.365-0.8 0.81-0.8s0.8 0.36 0.8 0.8zM2.47 25.15c-0.235 0.235-0.62 0.235-0.85 0-0.106-0.108-0.171-0.256-0.171-0.42s0.065-0.312 0.172-0.42l0.96-0.96 0.85 0.85zM5.685 28.885c-0.24 0.235-0.62 0.235-0.855 0-0.108-0.108-0.174-0.258-0.174-0.422s0.066-0.314 0.174-0.423l0.96-0.96 0.85 0.85zM9.165 25.415l-1.765 1.76-0.85-0.85 1.76-1.75q0.055-0.060 0.090-0.14l0.030-0.040q0.015-0.060 0.025-0.125l0.010-0.075q0-0.050-0.020-0.1 0-0.050-0.015-0.1-0.030-0.075-0.095-0.14-0.010-0.015-0.025-0.035l-1.605-1.6q-0.030-0.025-0.060-0.040l-0.085-0.060-0.095-0.030-0.1-0.020h-0.1l-0.1 0.025-0.1 0.045q-0.025 0.010-0.055 0.030l-1.775 1.32-0.9-0.9 2.4-2.38 4.36 4.285zM15.98 18.4h-0.050c-0.010-0.001-0.022-0.001-0.035-0.001-0.098 0-0.19 0.028-0.267 0.077l0.002-0.001-0.080 0.065-0.040 0.030-4.7 5.145-4.325-4.26 2.835-2.815c0.095-0.096 0.153-0.229 0.153-0.375 0-0.295-0.239-0.534-0.533-0.535h-0l-2.22 0.010 0.025-1.605 3.105 0.025c1.264 1.296 3.027 2.099 4.977 2.099 0.454 0 0.897-0.043 1.326-0.126l-0.044 0.007q0.055 0.050 0.13 0.085l2.41 0.96 0.15 0.755 0.18 0.885zM20.020 18.575l-0.315-1.555 1.45-1.080 0.375 0.5 0.57 0.755zM23.77 15.745l-0.835 0.785-0.93-1.235 0.83-0.635q0.245-0.18 0.545-0.145c0.35 0.053 0.615 0.352 0.615 0.712 0 0.203-0.084 0.387-0.219 0.518l-0 0z"></path>
<path fill="#2e2f42" style="fill: var(--color1, #2e2f42)" d="M13.6 18.545l-2.14-2.135c-0.096-0.095-0.229-0.153-0.375-0.153s-0.279 0.059-0.375 0.154l0-0-2.15 2.135c-0.096 0.097-0.156 0.23-0.156 0.378s0.060 0.281 0.156 0.378l-0-0 2.15 2.135c0.096 0.095 0.229 0.153 0.375 0.153s0.279-0.059 0.375-0.154l-0 0 2.14-2.135c0.096-0.097 0.156-0.23 0.156-0.378s-0.060-0.281-0.156-0.378l0 0zM11.085 20.305l-1.39-1.385 1.39-1.38 1.385 1.38zM17.165 5.070l-0.26 1.035c0.075 0.020 1.74 0.45 1.74 2.15h1.065c0-2.015-1.665-2.965-2.55-3.185zM19.71 9.32h-1.060v1.070h1.065z"></path>
</symbol>
<symbol id="icon-send" viewBox="0 0 32 32">
<path d="M32 2.667l-32 15 10.227 3.156 15.773-12.323-11.997 13.488 0.009 0.004-0.012-0.004v7.345l5.735-5.576 7.267 2.243 4.999-23.333z"></path>
</symbol>
<symbol id="icon-close" viewBox="0 0 32 32">
<path d="M32 3.224l-3.224-3.224-12.776 12.776-12.776-12.776-3.224 3.224 12.776 12.776-12.776 12.776 3.224 3.224 12.776-12.776 12.776 12.776 3.224-3.224-12.776-12.776 12.776-12.776z"></path>
</symbol>
<symbol id="icon-checked" viewBox="0 0 40 32">
<path d="M33.784 1.020c0.659-0.637 1.558-1.030 2.548-1.030 2.007 0 3.637 1.611 3.668 3.611l0 0.003c0.001 0.028 0.001 0.061 0.001 0.095 0 0.965-0.368 1.844-0.972 2.504l0.003-0.003-19.576 24.616c-0.674 0.728-1.635 1.182-2.702 1.182-0.495 0-0.967-0.098-1.398-0.275l0.024 0.009c-0.477-0.197-0.884-0.473-1.224-0.816l-0-0-12.984-13.052c-0.724-0.677-1.175-1.638-1.175-2.705 0-0.501 0.1-0.98 0.28-1.416l-0.009 0.025c0.564-1.367 1.887-2.312 3.43-2.312 0.018 0 0.035 0 0.053 0l-0.003-0c1.038 0.019 1.967 0.467 2.622 1.174l0.002 0.002 10.276 10.328 17.040-21.832c0.032-0.039 0.065-0.074 0.1-0.108l-0.004-0z"></path>
</symbol>
<symbol id="icon-phone" viewBox="0 0 32 32">
<path d="M28.864 21.822l-4.524-0.517c-0.124-0.015-0.267-0.024-0.413-0.024-0.98 0-1.867 0.398-2.509 1.041l-3.276 3.276c-5.081-2.621-9.119-6.659-11.671-11.59l-0.070-0.149 3.298-3.296c0.642-0.641 1.038-1.528 1.038-2.507 0-0.146-0.009-0.289-0.026-0.43l0.002 0.017-0.517-4.49c-0.213-1.784-1.717-3.153-3.541-3.153-0.001 0-0.003 0-0.004 0h-3.082c-2.014 0-3.687 1.674-3.562 3.687 0.943 15.212 13.11 27.362 28.305 28.308 2.014 0.123 3.687-1.551 3.687-3.564v-3.082c0-0.006 0-0.013 0-0.020 0-1.811-1.363-3.303-3.12-3.506l-0.016-0.002z"></path>
</symbol>
<symbol id="icon-person" viewBox="0 0 32 32">
<path d="M16 16c4.418 0 8-3.582 8-8s-3.582-8-8-8v0c-4.418 0-8 3.582-8 8s3.582 8 8 8v0zM16 20c-5.339 0-16 2.68-16 8v2c0 1.099 0.901 2 2 2h28c1.099 0 2-0.901 2-2v-2c0-5.32-10.661-8-16-8z"></path>
</symbol>
<symbol id="icon-email" viewBox="0 0 40 32">
<path d="M36 0h-32c-2.2 0-3.981 1.8-3.981 4l-0.019 24c0 2.2 1.8 4 4 4h32c2.2 0 4-1.8 4-4v-24c0-2.2-1.8-4-4-4zM35.2 8.501l-14.139 8.837c-0.302 0.188-0.668 0.3-1.060 0.3s-0.758-0.112-1.069-0.305l0.009 0.005-14.141-8.84c-0.503-0.301-0.835-0.843-0.835-1.463 0-0.938 0.761-1.699 1.699-1.699 0.349 0 0.673 0.105 0.943 0.285l-0.006-0.004 13.4 8.381 13.4-8.381c0.264-0.176 0.588-0.282 0.937-0.282 0.938 0 1.699 0.761 1.699 1.699 0 0.62-0.332 1.162-0.828 1.459l-0.008 0.004z"></path>
</symbol>
</defs>
</svg>